
<svg height="100%" width="100%" viewBox="0 0 24 24" xmlns="http://www.w3.org/2000/svg">
    <g fill="currentColor">
        <path d="M12,1 C5.92486775,1 1,5.92486775 1,12 C1,18.0751322 5.92486775,23 12,23 C18.0751322,23 23,18.0751322 23,12 C23,5.92486775 18.0751322,1 12,1 Z M12,3 C16.9705627,3 21,7.02943725 21,12 C21,16.9705627 16.9705627,21 12,21 C7.02943725,21 3,16.9705627 3,12 C3,7.02943725 7.02943725,3 12,3 Z"></path>
        <path d="M8.99479618,17.4371843 L11.8232233,17.4371843 C13.9445436,17.4371843 15.0052038,16.3765242 15.0052038,14.2552038 L15.0052038,5.06281566 L12.8838835,5.06281566 L12.8838835,14.2552038 C12.8838835,15.315864 12.8838835,15.315864 11.8232233,15.315864 L8.99479618,15.315864 L8.99479618,17.4371843 Z" transform="translate(12.000000, 11.250000) rotate(-315.000000) translate(-12.000000, -11.250000)"></path>
    </g>
</svg>