<svg height="100%" width="100%" viewBox="0 0 24 24" xmlns="http://www.w3.org/2000/svg">
    <g fill="currentColor">
        <path d="M12,1 C5.92486775,1 1,5.92486775 1,12 C1,18.0751322 5.92486775,23 12,23 C18.0751322,23 23,18.0751322 23,12 C23,5.92486775 18.0751322,1 12,1 Z M12,3 C16.9705627,3 21,7.02943725 21,12 C21,16.9705627 16.9705627,21 12,21 C7.02943725,21 3,16.9705627 3,12 C3,7.02943725 7.02943725,3 12,3 Z"></path>
        <polygon points="12 13.5 8 17.5 6.5 16 10.5 12 6.5 8 8 6.5 12 10.5 16 6.5 17.5 8 13.5 12 17.5 16 16 17.5"></polygon>
    </g>
</svg>