<svg height="100%" width="100%" viewBox="0 0 24 24" xmlns="http://www.w3.org/2000/svg">
    <g fill="currentColor">
        <path d="M10,22 L12,22 L12,21 C12,17 13,16 16.5,16 C20,16 21,17 21,21 L21,22 L23,22 L23,21 C23,16 21,14 16.5,14 C12,14 10,16 10,21 L10,22 Z"></path>
        <path d="M7,15 C8.29781254,15 9.3850854,15.2105397 10.2618186,15.6657741 C9.920253,16.1821196 9.64995945,16.7756856 9.44842996,17.4486625 C8.84802571,17.1214417 8.04545455,17 7,17 C4,17 3,18 3,22 L3,22 L1,22 C1,17 3,15 7,15 Z"></path>
        <path d="M16.5,3 C19.2614237,3 21.5,5.23857625 21.5,8 C21.5,10.7614237 19.2614237,13 16.5,13 C13.7385763,13 11.5,10.7614237 11.5,8 C11.5,5.23857625 13.7385763,3 16.5,3 Z M16.5,5 C14.8431458,5 13.5,6.34314575 13.5,8 C13.5,9.65685425 14.8431458,11 16.5,11 C18.1568542,11 19.5,9.65685425 19.5,8 C19.5,6.34314575 18.1568542,5 16.5,5 Z"></path>
        <path d="M7,5 C9.48528137,5 11.5,7.01471863 11.5,9.5 C11.5,11.9852814 9.48528137,14 7,14 C4.51471863,14 2.5,11.9852814 2.5,9.5 C2.5,7.01471863 4.51471863,5 7,5 Z M7,7 C5.61928813,7 4.5,8.11928813 4.5,9.5 C4.5,10.8807119 5.61928813,12 7,12 C8.38071187,12 9.5,10.8807119 9.5,9.5 C9.5,8.11928813 8.38071187,7 7,7 Z"></path>
    </g>
</svg>